<svg version="1.0" xmlns="http://www.w3.org/2000/svg"
 width="430.000000pt" height="255.000000pt" viewBox="0 0 430.000000 255.000000"
 preserveAspectRatio="xMidYMid meet">

<g transform="translate(0.000000,255.000000) scale(0.100000,-0.100000)"
fill="#000000" stroke="none">
<path d="M2465 2045 c-5 -2 -29 -9 -53 -15 -42 -11 -43 -12 -112 -150 -40 -80
-65 -142 -60 -145 6 -4 18 8 28 25 36 66 35 65 77 44 21 -10 45 -29 53 -42 14
-21 13 -23 -23 -38 -57 -24 -153 -36 -220 -29 -64 6 -151 31 -160 45 -3 5 7
22 21 40 36 42 20 54 -17 12 -35 -39 -39 -39 -39 -7 0 14 9 30 20 37 23 15 26
28 7 28 -23 0 -45 -33 -59 -89 l-14 -54 -26 32 c-73 87 -17 211 95 211 81 0
134 -61 125 -144 -7 -56 16 -66 26 -11 7 37 19 42 89 37 15 -1 27 2 27 7 0 16
-38 23 -80 16 -33 -6 -40 -4 -40 9 0 13 13 16 70 16 40 0 70 4 70 10 0 6 -31
10 -74 10 -69 0 -77 2 -104 29 -96 97 -262 27 -262 -111 0 -35 31 -95 61 -116
14 -10 18 -26 17 -81 0 -79 14 -130 53 -187 49 -72 150 -124 239 -124 121 0
242 88 279 203 17 51 15 150 -4 236 -18 77 -48 113 -105 126 -36 8 -37 12 -5
75 22 43 31 51 67 60 72 19 78 21 78 31 0 9 -25 11 -45 4z m-74 -205 c43 -22
55 -40 45 -66 -5 -14 -9 -12 -26 9 -11 14 -38 34 -60 43 -21 10 -37 21 -34 26
8 13 32 9 75 -12z m-313 -156 c67 -16 170 -17 231 -3 24 5 46 8 48 5 6 -5 -21
-139 -33 -170 -5 -13 -3 -17 6 -14 18 6 39 70 47 140 5 52 9 60 39 77 22 13
36 16 40 10 3 -6 9 -48 11 -93 5 -69 2 -89 -17 -133 -25 -59 -89 -124 -147
-149 -50 -22 -156 -22 -206 0 -58 25 -122 90 -147 149 -19 44 -22 64 -17 133
2 45 8 87 11 93 4 6 19 2 42 -11 20 -12 61 -27 92 -34z"/>
<path d="M1580 765 c0 -158 1 -165 20 -165 15 0 20 7 20 29 0 25 25 61 34 50
1 -2 13 -21 25 -41 16 -28 29 -38 47 -38 28 0 27 1 -19 65 l-29 40 33 27 c26
22 30 31 21 40 -9 9 -21 4 -51 -20 -22 -18 -45 -32 -50 -32 -7 0 -11 38 -11
105 0 98 -1 105 -20 105 -19 0 -20 -7 -20 -165z"/>
<path d="M2330 765 c0 -158 1 -165 20 -165 19 0 20 7 20 165 0 158 -1 165 -20
165 -19 0 -20 -7 -20 -165z"/>
<path d="M2960 765 c0 -156 1 -165 19 -165 11 0 21 5 23 11 3 9 9 9 25 0 63
-33 133 7 133 77 0 58 -30 92 -81 92 -22 0 -49 -5 -60 -10 -18 -10 -19 -7 -19
75 0 78 -2 85 -20 85 -19 0 -20 -7 -20 -165z m142 -32 c10 -9 18 -27 18 -40 0
-28 -33 -63 -60 -63 -26 0 -60 34 -60 62 0 50 63 76 102 41z"/>
<path d="M3220 765 c0 -158 1 -165 20 -165 19 0 20 7 20 165 0 158 -1 165 -20
165 -19 0 -20 -7 -20 -165z"/>
<path d="M920 892 c-40 -19 -80 -88 -80 -137 0 -47 40 -116 80 -137 60 -31
166 -18 158 20 -2 11 -11 16 -23 13 -11 -2 -40 -4 -64 -5 -37 0 -48 4 -72 32
-62 70 -21 185 67 186 22 1 49 -3 60 -7 17 -6 23 -3 27 12 10 40 -89 55 -153
23z"/>
<path d="M2590 756 l0 -156 55 0 c71 0 122 21 135 55 15 40 12 54 -15 81 -23
23 -24 27 -10 47 21 30 19 80 -5 102 -13 12 -42 19 -90 23 l-70 5 0 -157z
m120 94 c11 -11 20 -24 20 -28 0 -22 -29 -44 -60 -45 -33 -2 -35 0 -38 31 -2
19 -1 40 2 48 8 21 53 17 76 -6z m18 -132 c32 -32 -11 -82 -65 -76 -25 3 -28
7 -31 46 l-3 42 43 0 c24 0 49 -5 56 -12z"/>
<path d="M1820 820 c0 -29 -4 -40 -15 -40 -8 0 -15 -6 -15 -14 0 -8 7 -16 15
-20 11 -4 15 -22 15 -76 0 -63 2 -70 20 -70 17 0 19 8 22 73 3 66 5 72 26 75
31 5 29 32 -3 32 -22 0 -25 4 -25 40 0 33 -3 40 -20 40 -17 0 -20 -7 -20 -40z"/>
<path d="M2215 850 c-9 -15 4 -30 26 -30 12 0 19 7 19 20 0 21 -33 29 -45 10z"/>
<path d="M2850 840 c0 -13 7 -20 20 -20 13 0 20 7 20 20 0 13 -7 20 -20 20
-13 0 -20 -7 -20 -20z"/>
<path d="M1159 754 c-35 -37 -33 -98 4 -130 41 -35 100 -33 138 5 32 33 37 67
14 110 -17 34 -33 41 -89 41 -33 0 -48 -6 -67 -26z m119 -36 c26 -55 -35 -112
-78 -73 -24 22 -26 68 -4 90 24 24 66 15 82 -17z"/>
<path d="M1395 755 c-19 -18 -25 -35 -25 -65 0 -55 34 -90 87 -90 21 0 44 4
52 9 22 14 3 31 -28 25 -21 -5 -35 0 -50 15 -27 27 -27 55 0 82 16 16 28 20
55 14 26 -4 34 -2 34 8 0 36 -91 37 -125 2z"/>
<path d="M1972 757 c-33 -35 -31 -109 4 -136 30 -23 83 -28 103 -8 11 10 14
10 18 0 3 -7 13 -13 24 -13 17 0 19 8 19 90 0 90 -8 108 -37 79 -8 -8 -13 -8
-17 0 -4 6 -26 11 -50 11 -32 0 -48 -6 -64 -23z m109 -17 c38 -21 14 -110 -30
-110 -29 0 -61 30 -61 57 0 51 45 77 91 53z"/>
<path d="M2220 690 c0 -83 1 -90 20 -90 19 0 20 7 20 90 0 83 -1 90 -20 90
-19 0 -20 -7 -20 -90z"/>
<path d="M2850 690 c0 -83 1 -90 20 -90 19 0 20 7 20 90 0 83 -1 90 -20 90
-19 0 -20 -7 -20 -90z"/>
<path d="M3345 755 c-19 -18 -25 -35 -25 -65 0 -55 34 -90 87 -90 47 0 66 11
57 33 -5 13 -10 14 -26 6 -15 -8 -27 -8 -46 0 -31 15 -22 24 48 46 73 24 72
22 55 54 -17 34 -33 41 -86 41 -29 0 -47 -7 -64 -25z m105 -20 c10 -12 8 -16
-14 -25 -74 -28 -89 -23 -66 21 13 23 62 26 80 4z"/>
</g>
</svg>
